<svg xmlns="http://www.w3.org/2000/svg" viewBox="0 0 800 200" role="img" aria-label="Macfax">
  <rect x="1" y="1" width="798" height="198" rx="20" fill="#ffffff" stroke="#e4e4e7" stroke-width="2"/>
  <g transform="translate(202.4 60.48) scale(2)">
    <circle cx="19.76" cy="19.76" fill="none" r="19.16" stroke="#0a0a0a" stroke-miterlimit="5.25" stroke-width="1.2"/>
    <circle cx="19.76" cy="19.76" fill="none" r="14.44" stroke="#0a0a0a" stroke-dasharray=".9 1.4" stroke-miterlimit="5.25" stroke-width=".6"/>
    <path fill="#0a0a0a" d="m13.63 25.27v-12.11h2.53l3.6 9.95 3.6-9.95h2.53v12.11h-1.85v-8.87l-3.25 8.86h-2.05l-3.26-8.86v8.87zm40.13 10.11v-31.24h7.7l8.62 24.2 8.63-24.2h7.7v31.24h-5.72v-21.56l-7.88 21.52h-5.45l-7.88-21.52v21.56zm43.52.53c-2.49 0-4.48-.57-5.97-1.7-1.48-1.13-2.22-2.7-2.22-4.73 0-1.99.62-3.57 1.87-4.73 1.25-1.15 3.18-1.98 5.79-2.48l7.79-1.54c0-1.65-.38-2.89-1.15-3.74-.76-.85-1.87-1.28-3.34-1.28-2.67 0-4.27 1.22-4.8 3.65l-5.76-.26c.47-2.47 1.61-4.37 3.43-5.72s4.2-2.02 7.13-2.02c3.31 0 5.83.84 7.54 2.53q2.58 2.535 2.58 7.23v8.54c0 .61.1 1.04.31 1.28.2.23.54.35 1.01.35h.75v4.09c-.47.12-1.15.18-2.03.18-1.38 0-2.49-.29-3.32-.88s-1.37-1.57-1.61-2.95c-.59 1.26-1.59 2.27-3.01 3.03-1.42.77-3.08 1.15-4.99 1.15m1.14-4.09c1.85 0 3.33-.54 4.44-1.63 1.12-1.09 1.68-2.52 1.68-4.31v-1.32l-6.08 1.23c-1.23.23-2.12.61-2.68 1.14s-.84 1.2-.84 2.03c0 .91.3 1.61.91 2.11.6.5 1.46.75 2.57.75m25.56 4.09c-2.31 0-4.34-.51-6.09-1.52q-2.625-1.515-4.05-4.29c-.95-1.85-1.43-4-1.43-6.47 0-2.43.48-4.58 1.43-6.44q1.425-2.805 4.05-4.32c1.75-1.01 3.78-1.51 6.09-1.51 3.03 0 5.52.78 7.48 2.35 1.97 1.57 3.13 3.73 3.48 6.49l-5.81.31c-.21-1.47-.77-2.6-1.69-3.39-.93-.79-2.08-1.19-3.46-1.19-1.81 0-3.22.68-4.22 2.03q-1.5 2.025-1.5 5.67c0 2.43.5 4.33 1.5 5.68s2.41 2.02 4.22 2.02q2.115 0 3.48-1.23c.91-.82 1.46-2.04 1.67-3.65l5.81.26c-.32 2.82-1.47 5.06-3.45 6.71-1.98 1.66-4.48 2.49-7.51 2.49m14.39-24.95c0-2.17.6-3.85 1.81-5.04 1.2-1.19 3.02-1.78 5.45-1.78h4.58v4.36h-3.52c-1.76 0-2.64.92-2.64 2.77v1.23h5.85v4.36h-5.85v18.52h-5.68v-18.52h-3.34v-4.36h3.34zm19.93 24.95c-2.49 0-4.48-.57-5.96-1.7s-2.22-2.7-2.22-4.73c0-1.99.62-3.57 1.87-4.73 1.25-1.15 3.18-1.98 5.79-2.48l7.78-1.54c0-1.65-.38-2.89-1.14-3.74s-1.87-1.28-3.34-1.28c-2.67 0-4.27 1.22-4.8 3.65l-5.76-.26c.47-2.47 1.61-4.37 3.43-5.72s4.2-2.02 7.13-2.02c3.31 0 5.83.84 7.54 2.53q2.58 2.535 2.58 7.23v8.54c0 .61.1 1.04.3 1.28.21.23.55.35 1.02.35h.74v4.09c-.47.12-1.14.18-2.02.18-1.38 0-2.49-.29-3.32-.88-.84-.59-1.38-1.57-1.61-2.95-.59 1.26-1.59 2.27-3.01 3.03-1.43.77-3.09 1.15-5 1.15m1.15-4.09c1.85 0 3.33-.54 4.44-1.63s1.67-2.52 1.67-4.31v-1.32l-6.07 1.23c-1.23.23-2.13.61-2.68 1.14-.56.53-.84 1.2-.84 2.03 0 .91.3 1.61.9 2.11q.915.75 2.58.75m14.61 3.56 8.44-11.97-8.18-11.53h6.12l5.41 8.01 5.23-8.01h6.25l-8.09 11.58 8.36 11.92h-6.08l-5.63-8.45-5.63 8.45z"/>
  </g>
</svg>
